# AST/ASF file generated using VICON BodyLanguage
# -----------------------------------------------
:version 1.10
:name VICON
:units
  mass 1.0
  length 0.45
  angle deg
:documentation
   .ast/.asf automatically generated from VICON data using
   VICON BodyBuilder and BodyLanguage model FoxedUp or BRILLIANT.MOD
:root
   order TX TY TZ RX RY RZ
   axis XYZ
   position 0 0 0  
   orientation 0 0 0 
:bonedata
  begin
     id 1 
     name lhipjoint
     direction 0.662698 -0.695252 0.27831 
     length 2.53073 
     axis 0 0 0  XYZ
  end
  begin
     id 2 
     name lfemur
     direction 0.34202 -0.939693 0  
     length 7.16147  
     axis 0 0 20  XYZ
    dof rx ry rz
    limits (-160.0 20.0)
           (-70.0 70.0)
           (-60.0 70.0)
  end
  begin
     id 3 
     name ltibia
     direction 0.34202 -0.939693 0   
     length 7.63967   
     axis 0 0 20   XYZ
    dof rx
    limits (-10.0 170.0)
  end
  begin
     id 4 
     name lfoot
     direction 0.0938457 -0.257721 0.961651   
     length 1.89793   
     axis -90 7.62852e-016 20   XYZ
    dof rx rz
    limits (-45.0 90.0)
           (-70.0 20.0)
  end
  begin
     id 5 
     name ltoes
     direction -0.00116841 -0.0030592 0.999995   
     length 0.955649   
     axis -90 7.62852e-016 20   XYZ
    dof rx
    limits (-90.0 20.0)
  end
  begin
     id 6 
     name rhipjoint
     direction -0.649445 -0.705948 0.282592   
     length 2.49238  
     axis 0 0 0  XYZ 
  end
  begin
     id 7 
     name rfemur
     direction -0.34202 -0.939693 0   
     length 6.90728   
     axis 0 0 -20   XYZ
    dof rx ry rz
    limits (-160.0 20.0)
           (-70.0 70.0)
           (-70.0 60.0)
  end
  begin
     id 8 
     name rtibia
     direction -0.34202 -0.939693 0   
     length 7.72868   
     axis 0 0 -20   XYZ
    dof rx
    limits (-10.0 170.0)
 end
 begin
     id 9 
     name rfoot
     direction -0.0920068 -0.252865 0.963117   
     length 1.97476  
     axis -90 -7.62852e-016 -20   XYZ
    dof rx rz
    limits (-45.0 90.0)
           (-20.0 70.0)
  end
  begin
     id 10 
     name rtoes
     direction 0.000391322 0.00230649 0.999997   
     length 0.992641   
     axis -90 -7.62852e-016 -20   XYZ
    dof rx
    limits (-90.0 20.0)
  end
  begin
     id 11 
     name lowerback
     direction -0.00875327 0.998321 -0.0572635   
     length 2.20024   
     axis 0 0 0   XYZ
    dof rx ry rz
    limits (-20.0 45.0)
           (-30.0 30.0)
           (-30.0 30.0)
  end
  begin
     id 12 
     name upperback
     direction 0.00753931 0.999972 -0.000360425   
     length 2.20538   
     axis 0 0 0   XYZ
    dof rx ry rz
    limits (-20.0 45.0)
           (-30.0 30.0)
           (-30.0 30.0)
  end
  begin
     id 13 
     name thorax
     direction 0.0117767 0.999601 0.0256663   
     length 2.21508   
     axis 0 0 0   XYZ
    dof rx ry rz
    limits (-20.0 45.0)
           (-30.0 30.0)
           (-30.0 30.0)
  end
  begin
     id 14 
     name lowerneck
     direction 0.060228 0.994909 0.0807986   
     length 1.7607   
     axis 0 0 0   XYZ
    dof rx ry rz
    limits (-20.0 45.0)
           (-30.0 30.0)
           (-30.0 30.0)
  end
  begin
     id 15 
     name upperneck
     direction -0.0563647 0.959594 -0.275685   
     length 1.75612   
     axis 0 0 0   XYZ
    dof rx ry rz
    limits (-20.0 45.0)
           (-30.0 30.0)
           (-30.0 30.0)
  end
  begin
     id 16
     name head
     direction -0.0161544 0.99458 -0.102714  
     length 1.79288  
     axis 0 0 0   XYZ
    dof rx ry rz
    limits (-20.0 45.0)
           (-30.0 30.0)
           (-30.0 30.0)
  end
  begin
     id 17 
     name lclavicle
     direction 0.93913 0.332189 -0.087669  
     length 3.52087  
     axis 0 0 0   XYZ
    dof ry rz
    limits (-20.0 10.0)
           (0.0 20.0)
  end
  begin
     id 18 
     name lhumerus
     direction 1 -4.48974e-011 -2.70836e-027   
     length 5.35289   
     axis -180 -30 -90   XYZ
    dof rx ry rz
    limits (-60.0 90.0)
           (-90.0 90.0)
           (-90.0 90.0)
  end
  begin
     id 19
     name lradius
     direction 1 -4.48961e-011 -9.76021e-027   
     length 3.27727   
     axis -180 -30 -90   XYZ
    dof rx
    limits (-10.0 170.0)
  end
  begin
     id 20
     name lwrist
     direction 1 -4.49103e-011 -2.23668e-026   
     length 1.63864   
     axis 1.44924e-014 90 90   XYZ
    dof ry
    limits (-180.0 0.0)
 end
  begin
     id 21 
     name lhand
     direction 1 3.0697e-005 0.000161777   
     length 0.54443   
     axis 2.85318e-014 90 90   XYZ
    dof rx rz
    limits (-90.0 90.0)
           (-45.0 45.0)
  end
  begin
     id 22 
     name lfingers
     direction 1 -4.49027e-011 -8.9447e-026   
     length 0.438912   
     axis 5.70628e-014 90 90   XYZ
    dof rx
    limits (0.0 90.0)
  end
  begin
     id 23
     name lthumb
     direction 0.707058 2.6516e-005 0.707156   
     length 0.630274   
     axis -90 45 -3.53137e-014   XYZ
    dof rx rz
    limits (-45.0 45.0)
           (-45.0 45.0)
  end
  begin
     id 24 
     name rclavicle
     direction -0.95274 0.284984 -0.105215   
     length 3.43401  
     axis 0 0 0   XYZ 
    dof ry rz
    limits (-10.0 20.0)
           (-20.0 0.0)
  end
  begin
     id 25 
     name rhumerus
     direction -0.999999 -0.000575019 -0.00106829  
     length 5.52077   
     axis -180 30 90   XYZ
    dof rx ry rz
    limits (-90.0 60.0)
           (-90.0 90.0)
           (-90.0 90.0)
  end
  begin
     id 26 
     name rradius
     direction -1 -4.4879e-011 -6.35415e-027   
     length 3.32364   
     axis -180 30 90   XYZ
    dof rx
    limits (-10.0 170.0)
  end
  begin
     id 27 
     name rwrist
     direction -1 -4.49048e-011 -9.98542e-027   
     length 1.66182   
     axis 6.32482e-015 -90 -90   XYZ
    dof ry
    limits (-180.0 0.0)
  end
  begin
     id 28
     name rhand
     direction -1 -4.48978e-011 -1.99771e-026   
     length 0.732235   
     axis 1.27479e-014 -90 -90   XYZ
    dof rx rz
    limits (-90.0 90.0)
           (-45.0 45.0)
  end
  begin
     id 29
     name rfingers
     direction -1 -4.49144e-011 -3.99245e-026   
     length 0.590347   
     axis 2.5496e-014 -90 -90   XYZ
    dof rx
    limits (0.0 90.0)
  end
  begin
     id 30
     name rthumb
     direction -0.707107 -6.35121e-011 0.707107   
     length 0.847624   
     axis -90 -45 -2.82974e-014   XYZ
    dof rx rz
    limits (-45.0 45.0)
           (-45.0 45.0)
  end
:hierarchy
  begin
    root lhipjoint rhipjoint lowerback
    lhipjoint lfemur
    lfemur ltibia
    ltibia lfoot
    lfoot ltoes
    rhipjoint rfemur
    rfemur rtibia
    rtibia rfoot
    rfoot rtoes
    lowerback upperback
    upperback thorax
    thorax lowerneck lclavicle rclavicle
    lowerneck upperneck
    upperneck head
    lclavicle lhumerus
    lhumerus lradius
    lradius lwrist
    lwrist lhand lthumb
    lhand lfingers
    rclavicle rhumerus
    rhumerus rradius
    rradius rwrist
    rwrist rhand rthumb
    rhand rfingers
  end

#!OML:ASF G:\Work\Work\Patient Classification 1\Elijah\terrain1\Elijah.ASF
:FULLY-SPECIFIED
:DEGREES
100
root 16.276 23.5077 -4.46736 5.24333 -3.07087 -1.91838
lowerback 4.58968 1.3411 -2.59318
upperback -1.07401 1.55956 -2.04804
thorax -3.69544 0.808677 -0.779045
lowerneck -18.6235 10.1037 9.3836
upperneck 20.9289 14.7597 -12.752
head 11.6339 6.01677 -3.76802
rclavicle -7.25564e-015 1.19271e-014
rhumerus -41.1819 5.6882 -91.4361
rradius 28.4921
rwrist 7.19292
rhand -10.3714 22.0349
rfingers 7.12502
rthumb 15.626 -7.35395
lclavicle -7.25564e-015 1.19271e-014
lhumerus -27.6935 7.94664 76.6565
lradius 26.2442
lwrist -1.82034
lhand -18.0257 25.8952
lfingers 7.12502
lthumb 8.24556 55.7143
rfemur -8.55689 -2.23986 21.0832
rtibia 54.1945
rfoot 18.0073 -1.97622
rtoes -22.2352
lfemur -31.8485 -4.544 -19.7637
ltibia 46.9292
lfoot -16.9485 -5.82868
ltoes -8.23405
101
root 16.2924 23.5094 -4.34986 5.06865 -3.01851 -1.70519
lowerback 4.73991 1.32024 -2.47393
upperback -0.882785 1.52829 -2.34139
thorax -3.57093 0.785883 -1.14619
lowerneck -19.8551 10.1109 8.88951
upperneck 21.419 14.7447 -12.2041
head 11.9616 5.96006 -3.45151
rclavicle 1.07344e-014 2.38542e-015
rhumerus -40.5023 5.1023 -91.3469
rradius 28.3323
rwrist 7.47598
rhand -10.1487 21.924
rfingers 7.12502
rthumb 15.8404 -7.44805
lclavicle 1.07344e-014 2.38542e-015
lhumerus -26.8774 6.56556 77.0727
lradius 27.484
lwrist -1.11426
lhand -18.898 25.1633
lfingers 7.12502
lthumb 7.4036 55.0137
rfemur -9.60965 -2.82921 20.7318
rtibia 56.4209
rfoot 18.606 -2.12323
rtoes -16.9625
lfemur -31.1808 -4.55621 -20.1399
ltibia 46.8647
lfoot -17.2345 -6.12719
ltoes -8.14505
102
root 16.307 23.5246 -4.22247 4.91493 -3.17309 -1.36345
lowerback 4.71036 1.09692 -3.18038
upperback -1.29409 1.1814 -2.14199
thorax -4.00051 0.636524 -0.524732
lowerneck -17.5852 10.2271 9.54446
upperneck 20.6834 15.0473 -13.153
head 11.432 6.16934 -3.9215
rclavicle -1.799e-014 1.03368e-014
rhumerus -41.3302 5.88618 -91.3201
rradius 28.4814
rwrist 7.02675
rhand -10.3475 21.896
rfingers 7.12502
rthumb 15.649 -7.49108
lclavicle -1.799e-014 1.03368e-014
lhumerus -27.768 5.96367 77.564
lradius 28.9604
lwrist -0.227311
lhand -19.2746 27.5262
lfingers 7.12502
lthumb 7.04008 57.3891
rfemur -10.9719 -3.13173 20.2348
rtibia 58.6221
rfoot 17.3102 -1.62276
rtoes -18.0536
lfemur -30.4137 -4.40462 -20.6817
ltibia 46.7277
lfoot -17.5017 -6.23408
ltoes -7.59594
103
root 16.3111 23.5289 -4.13317 4.86702 -3.59419 -1.35873
lowerback 4.74376 1.43621 -2.75268
upperback -0.729846 1.6607 -2.63827
thorax -3.41458 0.852721 -1.30408
lowerneck -19.2357 9.86304 9.74519
upperneck 20.1064 14.3403 -13.5033
head 11.4915 5.76848 -4.15165
rclavicle -2.88238e-015 -9.54166e-015
rhumerus -39.7289 4.18584 -91.1079
rradius 28.1615
rwrist 6.8255
rhand -11.3137 22.6099
rfingers 7.12502
rthumb 14.7183 -6.84764
lclavicle -2.88238e-015 -9.54166e-015
lhumerus -25.6096 4.94313 77.3725
lradius 27.8359
lwrist -0.927904
lhand -20.5147 20.7624
lfingers 7.12502
lthumb 5.84293 50.6618
rfemur -12.6358 -2.95985 20.2848
rtibia 60.8484
rfoot 15.7706 -1.26359
rtoes -19.5838
lfemur -30.0039 -3.98232 -20.7603
ltibia 46.7192
lfoot -17.6304 -6.30184
ltoes -6.58119
104
root 16.3284 23.5353 -4.02772 4.83689 -3.50192 -0.971526
lowerback 4.6405 1.24627 -3.18869
upperback -0.944803 1.37847 -2.63084
thorax -3.59048 0.723314 -1.03261
lowerneck -18.4975 9.96269 9.68627
upperneck 20.1621 14.5553 -13.4529
head 11.3895 5.89908 -4.10778
rclavicle 9.14409e-015 -7.95139e-015
rhumerus -40.0387 4.09295 -90.8034
rradius 28.2318
rwrist 6.51472
rhand -11.9361 23.1729
rfingers 7.12502
rthumb 14.1185 -6.32743
lclavicle 9.14409e-015 -7.95139e-015
lhumerus -25.9226 4.01948 77.7363
lradius 28.7175
lwrist -0.0251285
lhand -20.8567 21.6357
lfingers 7.12502
lthumb 5.51269 51.544
rfemur -14.0878 -3.51106 19.7464
rtibia 63.0268
rfoot 14.2059 -0.8506
rtoes -19.5926
lfemur -29.4672 -4.18123 -21.3175
ltibia 46.5998
lfoot -17.7751 -6.31885
ltoes -5.57741
105
root 16.3184 23.5422 -3.92374 4.69164 -3.74463 -1.72387
lowerback 4.72154 1.2104 -2.77524
upperback -0.989716 1.36165 -2.30557
thorax -3.67975 0.710655 -0.929262
lowerneck -18.0297 10.0631 9.76868
upperneck 19.9395 14.7397 -13.6739
head 11.2703 5.99306 -4.17982
rclavicle 6.4605e-015 0
rhumerus -40.0537 3.92907 -90.5389
rradius 28.6344
rwrist 5.90387
rhand -11.4883 22.7101
rfingers 7.12502
rthumb 14.55 -6.75965
lclavicle 6.4605e-015 0
lhumerus -25.7909 3.76945 77.8815
lradius 29.5507
lwrist -0.293742
lhand -20.5462 22.9891
lfingers 7.12502
lthumb 5.81252 52.8894
rfemur -15.5132 -3.3216 20.8038
rtibia 65.0966
rfoot 13.4168 -1.25232
rtoes -17.9239
lfemur -28.9035 -3.90149 -20.4811
ltibia 46.5887
lfoot -17.933 -6.32832
ltoes -5.91471
106
root 16.3326 23.5552 -3.82835 4.80259 -3.70322 -1.06572
lowerback 4.50138 1.04796 -3.39
upperback -0.673307 1.12837 -2.3923
thorax -3.238 0.600607 -0.646573
lowerneck -19.0663 10.4449 9.5809
upperneck 20.1105 15.3068 -13.7334
head 11.6027 6.16847 -4.02689
rclavicle 6.4605e-015 1.51076e-014
rhumerus -39.0039 4.14548 -90.2879
rradius 28.7487
rwrist 4.86233
rhand -11.5377 22.1371
rfingers 7.12502
rthumb 14.5025 -7.336
lclavicle 6.4605e-015 1.51076e-014
lhumerus -24.3945 4.06762 78.1175
lradius 29.8733
lwrist -0.81048
lhand -20.0435 24.6239
lfingers 7.12502
lthumb 6.29778 54.5103
rfemur -17.3438 -3.99829 20.032
rtibia 67.2386
rfoot 10.5766 -0.0817912
rtoes -24.2326
lfemur -28.5557 -4.13541 -21.3018
ltibia 46.3442
lfoot -17.9777 -6.17905
ltoes -6.70096
107
root 16.3447 23.5675 -3.72796 4.72866 -3.63231 -0.721434
lowerback 4.48466 1.1411 -3.416
upperback -0.260132 1.25826 -2.73633
thorax -2.79664 0.656016 -0.988735
lowerneck -20.6591 10.5674 9.86272
upperneck 20.6484 15.3337 -13.6651
head 12.1365 6.11167 -3.99319
rclavicle -2.88238e-014 6.36111e-015
rhumerus -37.872 3.16172 -90.1168
rradius 28.643
rwrist 4.12931
rhand -12.2042 21.9386
rfingers 7.12502
rthumb 13.8603 -7.57954
lclavicle -2.88238e-014 6.36111e-015
lhumerus -22.6814 2.99136 78.33
lradius 29.9897
lwrist -0.609617
lhand -20.1102 25.1939
lfingers 7.12502
lthumb 6.23347 55.0822
rfemur -18.9506 -4.59512 19.6497
rtibia 69.2897
rfoot 10.1801 0.467486
rtoes -21.9744
lfemur -27.9979 -4.35292 -21.7738
ltibia 46.1333
lfoot -18.0636 -6.16017
ltoes -6.71337
108
root 16.3529 23.5867 -3.62452 4.65661 -3.63779 -0.394778
lowerback 4.55455 0.771341 -4.37667
upperback -1.02086 0.688009 -2.29671
thorax -3.6366 0.410047 0.0300768
lowerneck -17.7882 10.4043 9.75566
upperneck 19.9415 15.3881 -14.1587
head 11.3639 6.24049 -4.24049
rclavicle 1.2424e-014 -4.77083e-015
rhumerus -39.3668 4.34586 -89.9363
rradius 29.024
rwrist 3.29925
rhand -12.4099 21.6292
rfingers 7.12502
rthumb 13.662 -7.90246
lclavicle 1.2424e-014 -4.77083e-015
lhumerus -24.4416 3.83226 78.509
lradius 30.8308
lwrist -0.401395
lhand -21.1385 22.5687
lfingers 7.12502
lthumb 5.24065 52.4839
rfemur -20.7162 -5.05724 19.304
rtibia 71.3144
rfoot 8.47048 0.770862
rtoes -24.3798
lfemur -27.3573 -4.47372 -22.2202
ltibia 45.7875
lfoot -17.9646 -6.1999
ltoes -5.70436
109
root 16.3578 23.5884 -3.53102 4.43844 -3.67033 0.0326185
lowerback 4.61367 0.869513 -4.38877
upperback -0.315473 0.833339 -2.70273
thorax -2.93836 0.46117 -0.384548
lowerneck -20.2134 10.4949 9.30744
upperneck 20.3774 15.4286 -13.7679
head 11.9234 6.12953 -3.93551
rclavicle -1.64991e-014 -7.95139e-015
rhumerus -37.88 3.29712 -89.7376
rradius 29.2775
rwrist 2.75484
rhand -12.7111 21.615
rfingers 7.12502
rthumb 13.3717 -7.93586
lclavicle -1.64991e-014 -7.95139e-015
lhumerus -22.5111 2.95515 78.6226
lradius 31.319
lwrist 0.280485
lhand -21.1316 23.3698
lfingers 7.12502
lthumb 5.24731 53.2848
rfemur -22.0469 -5.69251 18.9338
rtibia 73.1881
rfoot 8.85563 1.23636
rtoes -18.0808
lfemur -26.6724 -4.5651 -22.7744
ltibia 45.5409
lfoot -17.7214 -6.21026
ltoes -4.68443
110
root 16.3618 23.6023 -3.43842 4.19664 -3.73228 0.453634
lowerback 4.80517 0.737266 -5.02132
upperback -0.499772 0.598756 -2.6799
thorax -3.23891 0.36175 0.00367245
lowerneck -19.0074 10.5132 9.70304
upperneck 19.9716 15.4846 -14.2124
head 11.6261 6.20979 -4.1886
rclavicle -1.74931e-014 -7.95139e-016
rhumerus -38.4722 3.39743 -89.6234
rradius 29.7977
rwrist 1.87055
rhand -13.3035 21.8884
rfingers 7.12502
rthumb 12.8007 -7.69916
lclavicle -1.74931e-014 -7.95139e-016
lhumerus -22.8716 2.65084 78.7069
lradius 32.3581
lwrist 0.673393
lhand -20.4664 25.9585
lfingers 7.12502
lthumb 5.88953 55.8566
rfemur -23.4662 -6.29954 18.5882
rtibia 74.9413
rfoot 6.86536 1.45043
rtoes -22.0679
lfemur -25.935 -4.56077 -23.3199
ltibia 45.3024
lfoot -17.574 -6.19683
ltoes -4.85585
111
root 16.3619 23.6185 -3.35013 4.20266 -3.82638 0.637209
lowerback 4.93349 0.913109 -4.95254
upperback -0.25557 0.828475 -3.04349
thorax -3.06048 0.465726 -0.426667
lowerneck -20.3424 10.6053 9.98144
upperneck 20.306 15.4209 -14.012
head 12.0042 6.14583 -4.1295
rclavicle -5.76476e-015 5.08889e-014
rhumerus -37.8375 2.1316 -89.5484
rradius 29.9651
rwrist 1.14184
rhand -14.0143 22.352
rfingers 7.12502
rthumb 12.1153 -7.27719
lclavicle -5.76476e-015 5.08889e-014
lhumerus -21.814 1.64256 78.6873
lradius 32.7234
lwrist 1.72161
lhand -21.1836 23.6766
lfingers 7.12502
lthumb 5.19708 53.5929
rfemur -25.2676 -6.87134 18.6184
rtibia 76.6013
rfoot 7.22729 0.898763
rtoes -19.2157
lfemur -25.4516 -4.42923 -23.5438
ltibia 45.0762
lfoot -17.5569 -6.35767
ltoes -5.49636
112
root 16.3598 23.6326 -3.26595 4.18421 -3.73713 0.655503
lowerback 4.91507 0.792375 -5.09955
upperback -0.138949 0.669943 -2.94305
thorax -2.92758 0.386428 -0.226997
lowerneck -20.6906 10.7 9.50098
upperneck 20.2721 15.5953 -13.7263
head 12.0095 6.20251 -3.89756
rclavicle -2.09718e-014 3.97569e-014
rhumerus -37.4434 2.19833 -89.3647
rradius 29.9459
rwrist 0.755432
rhand -15.2251 23.4539
rfingers 7.12502
rthumb 10.9477 -6.2407
lclavicle -2.09718e-014 3.97569e-014
lhumerus -21.3174 1.71199 78.8736
lradius 33.8405
lwrist 1.43404
lhand -19.5977 26.5757
lfingers 7.12502
lthumb 6.72816 56.4488
rfemur -27.0016 -7.54504 18.924
rtibia 78.1711
rfoot 6.90256 0.508539
rtoes -17.2292
lfemur -24.9237 -4.53433 -23.5336
ltibia 44.8428
lfoot -17.6916 -6.47654
ltoes -6.46267
113
root 16.364 23.6519 -3.17925 4.02221 -3.84373 0.967245
lowerback 5.45112 0.725217 -5.64324
upperback -0.338447 0.495177 -2.87471
thorax -3.43677 0.320832 0.150262
lowerneck -20.5342 10.6607 9.41374
upperneck 20.378 15.6119 -13.7783
head 12.0207 6.2007 -3.90727
rclavicle -1.20265e-014 1.11319e-014
rhumerus -37.6746 2.25683 -89.1144
rradius 30.631
rwrist 0.367839
rhand -15.6719 23.2344
rfingers 7.12502
rthumb 10.5167 -6.48249
lclavicle -1.20265e-014 1.11319e-014
lhumerus -21.0868 1.60451 79.0098
lradius 34.209
lwrist 1.69285
lhand -19.0996 26.8518
lfingers 7.12502
lthumb 7.20897 56.709
rfemur -28.6074 -8.16861 18.8437
rtibia 79.6228
rfoot 5.70834 0.280538
rtoes -18.6641
lfemur -24.2783 -4.65407 -23.9101
ltibia 44.6149
lfoot -17.7881 -6.34095
ltoes -7.84968
114
root 16.3705 23.6648 -3.09634 3.88051 -4.09985 1.26181
lowerback 5.61226 0.68821 -5.97672
upperback -0.44105 0.400762 -2.95669
thorax -3.63291 0.284766 0.255735
lowerneck -18.7383 10.4472 10.3944
upperneck 19.3081 15.3032 -14.9662
head 11.4396 6.13389 -4.61222
rclavicle 6.16232e-015 -7.95139e-016
rhumerus -37.8871 2.07853 -89.0071
rradius 31.0878
rwrist 0.221695
rhand -15.9355 23.2248
rfingers 7.12502
rthumb 10.2624 -6.50487
lclavicle 6.16232e-015 -7.95139e-016
lhumerus -20.7947 1.2989 78.9378
lradius 34.3909
lwrist 2.20987
lhand -19.1228 26.7504
lfingers 7.12502
lthumb 7.18659 56.6083
rfemur -30.3089 -8.69082 18.8179
rtibia 80.9478
rfoot 4.71147 -0.0953195
rtoes -20.5171
lfemur -23.7574 -4.57471 -24.3087
ltibia 44.4237
lfoot -17.7175 -6.19683
ltoes -9.20727
